<?xml version="1.0" standalone="no"?>
<!DOCTYPE svg PUBLIC "-//W3C//DTD SVG 20010904//EN"
 "http://www.w3.org/TR/2001/REC-SVG-20010904/DTD/svg10.dtd">
<svg version="1.0" xmlns="http://www.w3.org/2000/svg"
 width="512.000000pt" height="512.000000pt" viewBox="0 0 512.000000 512.000000"
 preserveAspectRatio="xMidYMid meet">
<metadata>
Created by potrace 1.14, written by Peter Selinger 2001-2017
</metadata>
<g transform="translate(0.000000,512.000000) scale(0.100000,-0.100000)"
fill="#000000" stroke="none">
<path d="M2378 5115 c-2 -1 -34 -5 -73 -9 -77 -6 -232 -31 -304 -47 -25 -6
-53 -12 -61 -14 -8 -2 -55 -15 -104 -30 -746 -219 -1372 -789 -1654 -1505 -55
-141 -105 -303 -126 -410 -2 -14 -9 -47 -14 -75 -6 -27 -13 -75 -17 -105 -4
-30 -10 -68 -13 -85 -3 -16 -7 -631 -9 -1365 -4 -1477 -8 -1390 60 -1441 l32
-24 2453 -3 c2251 -2 2456 -1 2488 14 19 9 44 31 57 48 l22 31 0 1355 c0 1427
1 1391 -46 1625 -199 995 -999 1795 -1994 1994 -55 11 -122 23 -150 26 -27 4
-77 10 -110 15 -54 7 -429 12 -437 5z"/>
</g>
</svg>
